<svg xmlns="http://www.w3.org/2000/svg" width="1700" height="1700" viewBox="0 0 1700 1700" version="1.1"><path d="M 1175.902 524.892 C 1159.105 531.464, 1136.088 555.789, 1124.213 579.519 C 1109.279 609.360, 1106.798 641.727, 1116.509 680.035 C 1127.444 723.175, 1154.557 770.909, 1183.255 797.547 C 1196.543 809.881, 1211.365 819.146, 1228.061 825.555 C 1233.253 827.547, 1237.852 829.512, 1238.283 829.922 C 1238.713 830.331, 1234.943 834.678, 1229.904 839.583 C 1196.857 871.746, 1175.119 911.723, 1167.416 954.500 C 1164.937 968.265, 1164.436 997.779, 1166.423 1013 C 1171.071 1048.605, 1183.162 1075.789, 1203.933 1097.336 C 1224.916 1119.103, 1250.857 1129.181, 1277.663 1125.981 C 1289.920 1124.517, 1298.197 1121.982, 1309.202 1116.323 C 1346.881 1096.944, 1372.312 1053.705, 1380.937 994.356 C 1384.414 970.434, 1385.288 953.508, 1384.672 922 C 1384.055 890.407, 1382.771 875.645, 1376.018 822.500 C 1369.488 771.108, 1368.735 762.745, 1368.685 741 C 1368.599 703.251, 1373.255 681.188, 1385.831 659.755 C 1395.393 643.460, 1409.632 631.338, 1425.882 625.659 C 1442.727 619.773, 1465.106 621.041, 1482.346 628.858 C 1501.240 637.425, 1516.212 652.880, 1522.561 670.371 C 1528.868 687.747, 1527.579 706.611, 1518.472 730.222 C 1513.807 742.315, 1507.510 753.926, 1492.017 779 C 1471.048 812.937, 1462.981 828.645, 1455.528 850.057 C 1447.145 874.140, 1443.868 892.953, 1443.864 917 C 1443.861 935.863, 1445.065 947.665, 1448.646 963.883 C 1459.862 1014.671, 1493.610 1060.203, 1528.726 1071.926 C 1549.310 1078.798, 1566.957 1075.806, 1582.714 1062.771 C 1587.590 1058.737, 1596.443 1048.110, 1595.616 1047.283 C 1595.412 1047.079, 1591.702 1049.454, 1587.372 1052.561 C 1577.397 1059.721, 1573.587 1061.649, 1565.781 1063.489 C 1552.252 1066.679, 1537.941 1064.827, 1526.070 1058.349 C 1493.453 1040.550, 1467.894 997.550, 1460.479 948 C 1457.459 927.820, 1458.771 897.348, 1463.579 876 C 1465.688 866.633, 1471.574 849.083, 1476.131 838.572 C 1480.388 828.754, 1490.786 809.485, 1497.473 799.025 C 1535.133 740.114, 1546.434 708.352, 1540.595 677.834 C 1537.213 660.155, 1530.899 648.646, 1517.099 635 C 1497.037 615.163, 1473.389 606.081, 1445 607.310 C 1430.348 607.944, 1423.759 609.549, 1411.500 615.473 C 1381.245 630.091, 1362.765 657.818, 1353.826 702 C 1351.704 712.490, 1351.505 716.003, 1351.553 742 C 1351.607 771.067, 1352.288 779.322, 1358.436 825.500 C 1361.128 845.712, 1364.937 880.348, 1366.026 894.500 C 1367.614 915.139, 1367.384 957.878, 1365.596 974.500 C 1359.466 1031.501, 1342.801 1069.218, 1313.865 1091.584 C 1293.134 1107.608, 1265.145 1111.557, 1242.691 1101.627 C 1207.523 1086.074, 1184.983 1042.277, 1184.728 989 C 1184.587 959.457, 1189.554 937.457, 1202.452 910.500 C 1218.886 876.151, 1250.769 840.561, 1272.239 832.600 C 1281.118 829.308, 1283.800 821.646, 1278.077 815.923 C 1274.804 812.650, 1271.060 812.189, 1263.711 814.155 C 1259.764 815.210, 1258.368 814.987, 1247.447 811.558 C 1232.315 806.805, 1222.987 802.506, 1212.117 795.274 C 1177.193 772.039, 1143.829 717.035, 1133.562 665.767 C 1127.403 635.017, 1129.805 612.964, 1141.976 588.500 C 1148.631 575.123, 1157.474 563.214, 1166.563 555.389 C 1173.933 549.045, 1177.104 547.403, 1186.753 544.935 C 1195.047 542.814, 1198.548 540.336, 1199.523 535.894 C 1200.305 532.333, 1196.816 525.693, 1193.327 524.103 C 1189.724 522.462, 1181.119 522.851, 1175.902 524.892 M 418.315 573.939 C 375.395 580.781, 341.655 616.883, 325.526 673.225 C 317.212 702.269, 314.513 729.847, 315.287 777.858 C 315.867 813.823, 316.264 818.553, 323.489 875.500 C 330.307 929.244, 331.313 942.058, 330.667 967 C 329.918 995.908, 327.836 1008.587, 321.054 1025.524 C 312.307 1047.369, 295.821 1065.337, 277.809 1072.656 C 252.876 1082.787, 222.609 1078.006, 200.415 1060.431 C 179.590 1043.940, 170.287 1021.255, 173.938 995.875 C 176.790 976.057, 185.406 956.787, 207.304 921.247 C 230.220 884.055, 237.543 869.560, 245.571 845.500 C 252.514 824.690, 255.034 810.631, 255.699 788.993 C 257.293 737.128, 242.747 693.187, 212.138 657.406 C 199.643 642.799, 183.739 631.733, 168.500 627.043 C 147.299 620.517, 128.756 625.058, 113.500 640.511 C 109.650 644.410, 105.657 649.091, 104.628 650.912 C 102.838 654.076, 103.081 653.973, 110.128 648.575 C 120.373 640.727, 128.010 637.181, 138.775 635.272 C 147.140 633.790, 148.532 633.789, 156.042 635.269 C 196.490 643.238, 232.301 695.180, 239.951 756.974 C 241.284 767.739, 241.286 788.850, 239.956 800.500 C 235.963 835.476, 224.602 864.556, 198.348 907 C 172.202 949.268, 163.215 968.360, 159.539 989.435 C 155.682 1011.552, 158.867 1031.235, 169.141 1048.779 C 174.219 1057.450, 190.932 1073.617, 200.228 1078.850 C 234.992 1098.420, 271.904 1097.559, 301.500 1076.490 C 308.399 1071.579, 320.182 1059.627, 324.762 1052.897 C 336.100 1036.233, 345.030 1009.216, 347.933 982.789 C 350.422 960.140, 349.109 937.698, 341.891 879.500 C 335.138 825.047, 334.249 816.150, 332.835 788.820 C 329.915 732.410, 336.961 683.834, 352.911 650.407 C 367.189 620.485, 388.466 600.965, 414 594.361 C 422.514 592.159, 437.503 592.162, 446 594.367 C 481.819 603.662, 508.258 641.215, 514.053 691.029 C 515.768 705.774, 514.740 733.512, 511.997 746.500 C 505.783 775.923, 490.535 806.979, 470.523 830.973 C 458.097 845.871, 434.936 866, 430.221 866 C 427.886 866, 421.092 869.960, 420.033 871.938 C 418.202 875.360, 418.824 880.683, 421.405 883.684 C 423.451 886.063, 424.533 886.467, 428.655 886.393 C 431.320 886.346, 435.374 885.958, 437.663 885.533 C 445.923 883.999, 472.469 894.182, 488.617 905.079 C 516.848 924.129, 544.815 965.284, 559.603 1009.539 C 567.124 1032.045, 568.396 1039.605, 568.433 1062 C 568.472 1085.590, 567.079 1092.072, 558.007 1110.500 C 550.572 1125.603, 543.324 1135.355, 532.473 1144.853 C 526.090 1150.439, 522.180 1152.396, 512.422 1154.887 C 500.767 1157.863, 497.753 1162.220, 501.669 1170.432 C 505.840 1179.178, 518.902 1179.034, 532.743 1170.088 C 540.508 1165.069, 552.656 1153.590, 560.184 1144.156 C 572.298 1128.977, 581.955 1109.189, 586.231 1090.783 C 589.163 1078.159, 589.363 1049.432, 586.622 1034.500 C 580.162 999.315, 562.137 958.882, 539.090 927.882 C 519.446 901.458, 499.027 885.139, 472.036 874.291 C 466.253 871.966, 461.392 869.676, 461.233 869.200 C 461.075 868.724, 464.487 865.137, 468.815 861.228 C 497.342 835.470, 521.643 793.096, 530.375 753.883 C 536.653 725.689, 536.371 694.220, 529.591 666.500 C 516.058 611.172, 479.087 575.009, 434.500 573.488 C 428.450 573.282, 421.167 573.485, 418.315 573.939 M 973.124 604.578 C 930.262 616.106, 896.821 682.523, 884.548 780.500 C 881.930 801.398, 880.919 820.670, 880.929 849.501 C 880.943 894.677, 883.888 924.866, 892.031 963.323 C 902.845 1014.397, 920.928 1054.122, 943.547 1076.500 C 952.229 1085.088, 959.132 1089.709, 968.568 1093.248 C 973.394 1095.058, 976.551 1095.470, 985.500 1095.459 C 995.081 1095.447, 997.310 1095.107, 1002.779 1092.827 C 1030.279 1081.361, 1051.207 1052.824, 1067.435 1004.660 C 1084.413 954.276, 1094.381 873.274, 1085.340 859.166 C 1082.348 854.497, 1080.249 854.307, 1038.662 854.924 L 999.824 855.500 997.412 858.306 C 993.962 862.319, 994.162 867.316, 997.923 871.077 L 1000.846 874 1019.673 874.162 C 1030.028 874.252, 1045.528 874.198, 1054.117 874.042 C 1063.714 873.869, 1069.971 874.143, 1070.349 874.755 C 1070.919 875.679, 1068.345 903.069, 1065.954 921.500 C 1056.947 990.953, 1033.972 1048.274, 1007.234 1068.002 C 999.001 1074.077, 993.027 1076.189, 984.274 1076.122 C 974.797 1076.050, 966.972 1072.028, 956.981 1062.093 C 928.935 1034.206, 909.166 974.495, 901.826 895.500 C 900.150 877.464, 900.152 821.909, 901.829 803.500 C 906.836 748.531, 917.690 704.108, 934.448 669.995 C 944.768 648.987, 958.296 632.693, 970.559 626.500 C 975.849 623.829, 977.487 623.500, 985.500 623.500 C 993.825 623.500, 994.966 623.753, 1000.720 626.873 C 1011.974 632.977, 1023.678 646.415, 1033.492 664.500 C 1039.200 675.019, 1051.613 704.326, 1056.935 719.846 C 1062.677 736.592, 1070.250 771.990, 1075.044 804.490 C 1076.228 812.516, 1078.167 817.157, 1079.461 815.063 C 1080.790 812.912, 1082.181 794.312, 1081.634 786 C 1079.452 752.858, 1070.863 705.209, 1062.816 681.607 C 1059.492 671.857, 1049.295 651.580, 1042.720 641.647 C 1039.303 636.484, 1032.467 628.306, 1027.026 622.872 C 1018.982 614.838, 1015.989 612.577, 1008.943 609.212 C 995.797 602.934, 984.614 601.487, 973.124 604.578 M 700.932 605.439 C 682.141 610.625, 662.831 629.495, 648.170 657 C 630.782 689.621, 617.396 740.281, 612.421 792.299 C 610.519 812.189, 610.895 832.448, 613.272 838.119 C 616.233 845.184, 615.046 845.002, 657.973 844.985 C 699.288 844.969, 699.491 844.946, 703.335 839.769 C 705.023 837.495, 705.206 836.424, 704.431 833.365 C 703.892 831.237, 702.312 828.810, 700.676 827.596 C 697.950 825.573, 696.667 825.494, 663.702 825.327 C 641.229 825.213, 629.433 824.800, 629.207 824.120 C 628.770 822.811, 632.590 785.926, 634.604 772 C 643.632 709.571, 662.811 659.886, 686.819 636.736 C 705.526 618.698, 724.152 618.871, 742.440 637.251 C 770.623 665.574, 790.555 725.156, 797.609 802.169 C 799.541 823.254, 799.816 872.478, 798.115 892.500 C 792.611 957.269, 778.411 1010.200, 757.472 1044 C 749.887 1056.243, 736.865 1069.545, 728.500 1073.595 C 723.406 1076.062, 721.289 1076.500, 714.479 1076.500 C 707.439 1076.500, 705.645 1076.100, 699.809 1073.227 C 688.115 1067.470, 676.021 1053.559, 665.510 1033.774 C 656.075 1016.016, 641.928 979.887, 637.601 962.500 C 633.191 944.778, 627.226 913.589, 625.045 896.850 C 624.063 889.313, 622.372 884, 620.956 884 C 618.346 884, 617.446 909.962, 619.372 929.688 C 622.221 958.868, 631.936 1005.910, 638.568 1022.642 C 652.882 1058.750, 676.777 1087.241, 698.294 1093.854 C 713.107 1098.407, 723.336 1097.510, 737.874 1090.384 C 761.962 1078.578, 782.695 1047.655, 797.804 1001 C 817.813 939.210, 824.210 856.985, 814.967 780.375 C 806.407 709.420, 784.760 651.352, 756.487 623.500 C 742.466 609.688, 730.156 604.005, 714.500 604.115 C 709.550 604.150, 703.444 604.746, 700.932 605.439" stroke="none" fill="#f0f0f6" fill-rule="evenodd"/><path d="M 838.781 8.552 C 838.415 8.918, 827.177 9.650, 813.808 10.179 C 773.564 11.770, 758.730 12.710, 754 13.971 C 751.525 14.631, 744.775 15.542, 739 15.996 C 733.225 16.449, 726.362 17.311, 723.750 17.910 C 721.138 18.510, 716.862 19.474, 714.250 20.054 C 711.638 20.634, 705 21.334, 699.500 21.610 C 694 21.885, 688.600 22.514, 687.500 23.005 C 683.026 25.005, 675.194 27.183, 669.519 28.005 C 666.209 28.485, 661.475 29.392, 659 30.021 C 656.525 30.649, 651.800 31.531, 648.500 31.979 C 645.200 32.428, 640.700 33.328, 638.500 33.979 C 636.300 34.631, 633.257 35.404, 631.738 35.698 C 630.219 35.991, 628.729 36.629, 628.429 37.115 C 628.128 37.602, 626.809 38, 625.498 38 C 624.187 38, 620.051 39.085, 616.307 40.410 C 609.240 42.912, 596.331 46.862, 580 51.520 C 570.440 54.246, 564.721 56.351, 555.500 60.536 C 550.020 63.024, 528.693 71, 527.522 71 C 526.871 71, 508.080 80.065, 482.593 92.675 C 477.693 95.099, 469.368 99.690, 464.093 102.878 C 458.817 106.066, 451.350 110.397, 447.500 112.503 C 443.650 114.610, 436.675 118.867, 432 121.963 C 427.325 125.060, 419 130.412, 413.500 133.857 C 408 137.302, 400.800 142.038, 397.500 144.382 C 394.200 146.725, 389.250 150.207, 386.500 152.119 C 374.274 160.618, 371.120 162.909, 362.575 169.503 C 357.584 173.354, 351.056 178.249, 348.069 180.381 C 345.082 182.513, 338.557 187.613, 333.569 191.714 C 328.581 195.815, 323.600 199.868, 322.500 200.722 C 321.400 201.575, 318.025 204.371, 315 206.935 C 311.975 209.500, 305 215.387, 299.500 220.017 C 294 224.648, 289.008 228.901, 288.407 229.468 C 287.805 230.036, 282.630 234.754, 276.907 239.954 C 264.666 251.075, 236.226 279.711, 228.197 289 C 225.107 292.575, 219.186 299.119, 215.039 303.542 C 210.893 307.965, 204.575 315.386, 201 320.033 C 197.425 324.681, 191.773 331.637, 188.439 335.491 C 185.106 339.346, 179.856 345.875, 176.773 350 C 173.690 354.125, 169.431 359.750, 167.308 362.500 C 160.948 370.737, 138.441 403.100, 135.054 408.876 C 133.321 411.834, 130.125 416.871, 127.951 420.072 C 125.778 423.272, 124 426.165, 124 426.500 C 124 426.835, 122.298 429.673, 120.219 432.805 C 118.139 435.937, 115.141 440.975, 113.558 444 C 111.974 447.025, 105.664 458.275, 99.535 469 C 93.406 479.725, 86.234 493, 83.597 498.500 C 80.961 504, 77.947 510.230, 76.902 512.345 C 75.856 514.459, 75 516.752, 75 517.441 C 75 518.129, 74.368 519.999, 73.596 521.596 C 72.824 523.193, 71.198 526.750, 69.984 529.500 C 68.770 532.250, 66.701 536.876, 65.388 539.780 C 64.075 542.683, 63 545.502, 63 546.043 C 63 546.584, 62.585 547.809, 62.078 548.764 C 59.797 553.056, 50.371 579.543, 46.513 592.500 C 42.445 606.160, 42.297 606.630, 38.005 619.648 C 35.802 626.329, 34 632.715, 34 633.839 C 34 634.963, 33.600 636.129, 33.110 636.432 C 32.621 636.734, 31.971 638.448, 31.666 640.241 C 31.030 643.977, 29.607 650.482, 28 657 C 26.953 661.246, 26.522 663.134, 23.947 674.750 C 22.349 681.957, 19.479 698.426, 18.414 706.500 C 18.124 708.700, 17.494 711.400, 17.013 712.500 C 16.533 713.600, 15.868 717.650, 15.535 721.500 C 15.202 725.350, 14.488 731.875, 13.947 736 C 13.406 740.125, 12.535 747.550, 12.011 752.500 C 11.487 757.450, 10.558 764.650, 9.947 768.500 C 7.190 785.856, 7.172 914.644, 9.924 933.500 C 10.486 937.350, 11.214 943.650, 11.543 947.500 C 11.871 951.350, 12.533 955.400, 13.014 956.500 C 13.495 957.600, 14.160 961.875, 14.492 966 C 15.821 982.507, 16.205 985.538, 17.084 986.450 C 17.588 986.973, 18 989.533, 18 992.141 C 18 994.749, 18.450 997.160, 19 997.500 C 19.550 997.840, 20 1000.315, 20 1003 C 20 1005.685, 20.450 1008.160, 21 1008.500 C 21.550 1008.840, 22 1011.765, 22 1015 C 22 1018.235, 22.450 1021.160, 23 1021.500 C 23.550 1021.840, 24 1023.865, 24 1026 C 24 1028.135, 24.450 1030.160, 25 1030.500 C 25.550 1030.840, 26 1032.640, 26 1034.500 C 26 1036.360, 26.450 1038.160, 27 1038.500 C 27.550 1038.840, 28 1040.415, 28 1042 C 28 1043.585, 28.450 1045.160, 29 1045.500 C 29.550 1045.840, 30 1047.522, 30 1049.238 C 30 1052.346, 31.454 1057.934, 33.123 1061.236 C 33.605 1062.191, 34 1063.735, 34 1064.665 C 34 1066.557, 35.777 1072.574, 37.123 1075.236 C 37.605 1076.191, 38 1078.308, 38 1079.939 C 38 1081.571, 38.506 1084.165, 39.125 1085.703 C 40.850 1089.995, 41.578 1092.039, 43.503 1098 C 44.480 1101.025, 45.667 1103.928, 46.140 1104.450 C 46.613 1104.973, 47 1106.495, 47 1107.834 C 47 1109.173, 48.547 1114.595, 50.438 1119.884 C 52.328 1125.173, 54.193 1130.850, 54.581 1132.500 C 54.970 1134.150, 56.168 1137.525, 57.243 1140 C 58.319 1142.475, 59.657 1145.625, 60.216 1147 C 60.776 1148.375, 61.631 1150.281, 62.117 1151.236 C 62.603 1152.191, 63 1153.643, 63 1154.461 C 63 1155.280, 64.350 1158.897, 66 1162.500 C 67.650 1166.103, 69 1169.250, 69 1169.495 C 69 1169.740, 70.075 1172.317, 71.388 1175.220 C 72.701 1178.124, 74.777 1182.750, 76 1185.500 C 77.223 1188.250, 79.229 1192.750, 80.457 1195.500 C 81.684 1198.250, 83.533 1202.525, 84.564 1205 C 87.171 1211.260, 103.986 1244.953, 106.023 1248 C 108.007 1250.967, 112.520 1259.130, 119.016 1271.500 C 125.958 1284.720, 127.450 1287.259, 134.036 1297.054 C 137.326 1301.947, 142.980 1310.799, 146.599 1316.725 C 150.218 1322.651, 154.856 1329.750, 156.906 1332.500 C 158.956 1335.250, 164.203 1342.388, 168.566 1348.363 C 195.885 1385.769, 241.083 1436.658, 270.500 1463.131 C 276.550 1468.576, 286.675 1477.803, 293 1483.636 C 299.325 1489.468, 307.875 1496.772, 312 1499.866 C 316.125 1502.960, 325.282 1510.119, 332.349 1515.776 C 339.416 1521.432, 347.966 1527.932, 351.349 1530.220 C 354.732 1532.508, 360.390 1536.615, 363.922 1539.346 C 367.455 1542.078, 373.980 1546.555, 378.422 1549.296 C 382.865 1552.038, 389.650 1556.396, 393.500 1558.982 C 402.467 1565.004, 424.456 1578.206, 433.500 1582.998 C 437.350 1585.038, 443.425 1588.369, 447 1590.400 C 450.575 1592.432, 456.875 1595.658, 461 1597.570 C 465.125 1599.481, 469.625 1601.723, 471 1602.552 C 475.826 1605.461, 489.113 1612.074, 494.018 1614.007 C 496.743 1615.081, 502.241 1617.495, 506.236 1619.371 C 517.194 1624.517, 523.868 1627.416, 530.500 1629.906 C 533.800 1631.146, 537.281 1632.574, 538.236 1633.080 C 539.191 1633.586, 540.451 1634, 541.035 1634 C 541.619 1634, 543.959 1634.900, 546.236 1636 C 548.513 1637.100, 550.746 1638, 551.199 1638 C 551.651 1638, 554.154 1638.945, 556.761 1640.100 C 559.367 1641.254, 562.400 1642.591, 563.500 1643.070 C 564.600 1643.549, 572.700 1646.241, 581.500 1649.053 C 590.300 1651.865, 600.650 1655.306, 604.500 1656.699 C 610.869 1659.004, 632.386 1665.052, 641 1666.958 C 648.723 1668.667, 659.995 1671.378, 669 1673.691 C 674.225 1675.034, 680.975 1676.588, 684 1677.146 C 687.025 1677.703, 691.750 1678.594, 694.500 1679.125 C 703.999 1680.960, 711.535 1682.053, 721 1682.967 C 726.225 1683.472, 733.200 1684.385, 736.500 1684.996 C 739.800 1685.608, 746.550 1686.538, 751.500 1687.063 C 756.450 1687.589, 764.100 1688.427, 768.500 1688.925 C 797.174 1692.175, 802.354 1692.411, 844.500 1692.387 C 871.412 1692.371, 893.937 1691.875, 902.500 1691.109 C 918.363 1689.690, 932.268 1688.481, 949 1687.067 C 955.325 1686.532, 962.975 1685.597, 966 1684.989 C 969.025 1684.381, 975.100 1683.464, 979.500 1682.952 C 990.809 1681.634, 996.374 1680.724, 1016 1676.983 C 1018.475 1676.511, 1022.300 1675.668, 1024.500 1675.108 C 1026.700 1674.549, 1032.325 1673.227, 1037 1672.170 C 1041.675 1671.113, 1048.650 1669.498, 1052.500 1668.581 C 1056.350 1667.663, 1061.525 1666.433, 1064 1665.848 C 1069.058 1664.651, 1082.934 1660.758, 1090.500 1658.412 C 1107.982 1652.992, 1131.429 1645.146, 1136.500 1643.019 C 1137.600 1642.558, 1146.150 1639.176, 1155.500 1635.504 C 1164.850 1631.833, 1173.963 1628.192, 1175.750 1627.414 C 1177.537 1626.636, 1180.463 1625.374, 1182.250 1624.609 C 1196.229 1618.628, 1202.188 1615.897, 1214 1610.063 C 1221.425 1606.395, 1228.400 1602.915, 1229.500 1602.330 C 1230.600 1601.744, 1236.450 1598.873, 1242.500 1595.949 C 1248.550 1593.025, 1255.300 1589.427, 1257.500 1587.953 C 1259.700 1586.480, 1262.404 1584.991, 1263.509 1584.646 C 1264.614 1584.301, 1267.916 1582.439, 1270.846 1580.509 C 1273.777 1578.579, 1276.347 1577, 1276.558 1577 C 1277.156 1577, 1308.584 1557.310, 1317.500 1551.349 C 1335.563 1539.273, 1344.127 1533.226, 1356.783 1523.612 C 1364.104 1518.050, 1372.898 1511.475, 1376.325 1509 C 1379.751 1506.525, 1386.503 1501.125, 1391.329 1497 C 1396.156 1492.875, 1402.132 1487.822, 1404.611 1485.772 C 1427.583 1466.768, 1483.645 1410.543, 1498.045 1392.067 C 1499.945 1389.628, 1503.480 1385.479, 1505.900 1382.846 C 1510.403 1377.947, 1514.637 1372.583, 1525.116 1358.500 C 1528.390 1354.100, 1533.069 1347.977, 1535.514 1344.894 C 1540.531 1338.567, 1569.643 1294.943, 1575.483 1285 C 1583.877 1270.710, 1596.202 1247.381, 1606.653 1226 C 1611.358 1216.375, 1616.668 1205.575, 1618.453 1202 C 1620.239 1198.425, 1622.737 1192.800, 1624.005 1189.500 C 1625.274 1186.200, 1626.692 1183.072, 1627.156 1182.550 C 1627.620 1182.027, 1628 1181.026, 1628 1180.325 C 1628 1179.624, 1629.350 1176.103, 1631 1172.500 C 1632.650 1168.897, 1634 1165.731, 1634 1165.464 C 1634 1165.197, 1634.862 1163.071, 1635.916 1160.739 C 1636.970 1158.408, 1638.792 1153.575, 1639.964 1150 C 1641.136 1146.425, 1642.523 1142.719, 1643.047 1141.764 C 1643.571 1140.809, 1644 1139.196, 1644 1138.180 C 1644 1137.164, 1644.305 1136.028, 1644.678 1135.656 C 1647.223 1133.110, 1669.691 1061.650, 1673.024 1045.500 C 1673.478 1043.300, 1674.379 1039.700, 1675.027 1037.500 C 1675.675 1035.300, 1676.409 1031.700, 1676.659 1029.500 C 1676.909 1027.300, 1677.507 1024.600, 1677.989 1023.500 C 1679.100 1020.959, 1680.017 1015.997, 1680.666 1009 C 1680.946 1005.975, 1681.586 1003.072, 1682.088 1002.550 C 1682.590 1002.027, 1683 1000.142, 1683 998.359 C 1683 996.576, 1683.450 994.840, 1684 994.500 C 1684.550 994.160, 1685 991.074, 1685 987.641 C 1685 984.208, 1685.409 980.973, 1685.908 980.450 C 1686.862 979.452, 1687.741 973.201, 1688.574 961.500 C 1688.848 957.650, 1689.492 953.600, 1690.004 952.500 C 1690.517 951.400, 1691.163 946.900, 1691.440 942.500 C 1691.717 938.100, 1692.409 930, 1692.978 924.500 C 1697.411 881.632, 1697.418 808.510, 1692.993 768 C 1692.423 762.775, 1691.536 754, 1691.024 748.500 C 1690.511 743, 1689.646 735.350, 1689.102 731.500 C 1688.557 727.650, 1687.832 721.800, 1687.490 718.500 C 1687.148 715.200, 1686.472 711.600, 1685.987 710.500 C 1685.501 709.400, 1684.877 706.475, 1684.599 704 C 1683.704 696.039, 1682.897 691.548, 1681.995 689.500 C 1681.510 688.400, 1680.892 685.700, 1680.621 683.500 C 1680.351 681.300, 1679.630 677.250, 1679.019 674.500 C 1678.408 671.750, 1677.516 667.475, 1677.037 665 C 1676.559 662.525, 1675.649 658.700, 1675.017 656.500 C 1674.384 654.300, 1673.483 650.925, 1673.013 649 C 1671.192 641.543, 1668.108 630.299, 1666.704 626 C 1665.896 623.525, 1664.677 619.475, 1663.995 617 C 1661.486 607.896, 1659.836 602.451, 1658.995 600.500 C 1658.520 599.400, 1657.656 596.925, 1657.074 595 C 1654.410 586.190, 1653.006 582.010, 1650.522 575.500 C 1649.053 571.650, 1647.435 567.719, 1646.926 566.764 C 1646.417 565.809, 1646 564.148, 1646 563.073 C 1646 561.998, 1645.550 560.840, 1645 560.500 C 1644.450 560.160, 1644 559.212, 1644 558.393 C 1644 557.574, 1643.100 555.041, 1642 552.764 C 1640.900 550.487, 1640 547.835, 1640 546.871 C 1640 545.907, 1639.550 544.840, 1639 544.500 C 1638.450 544.160, 1638 543.035, 1638 542.001 C 1638 540.966, 1636.650 537.518, 1635 534.337 C 1633.350 531.157, 1632 528.188, 1632 527.739 C 1632 526.841, 1625.426 512.022, 1618.167 496.557 C 1611.289 481.904, 1601.521 462.783, 1589.532 440.500 C 1581.851 426.225, 1579.628 422.372, 1575.974 417 C 1573.916 413.975, 1570.091 407.900, 1567.475 403.500 C 1564.859 399.100, 1561.506 393.700, 1560.024 391.500 C 1558.543 389.300, 1555.233 384.350, 1552.669 380.500 C 1537.983 358.444, 1515.495 327.962, 1506.500 317.917 C 1503.750 314.846, 1496.328 306.071, 1490.006 298.417 C 1468.066 271.851, 1416.444 221.348, 1389.500 200.089 C 1384.550 196.183, 1377.481 190.458, 1373.790 187.365 C 1370.100 184.272, 1365.068 180.338, 1362.609 178.621 C 1360.149 176.904, 1353.718 172.156, 1348.318 168.068 C 1332.135 155.818, 1328.817 153.448, 1321.500 148.910 C 1317.650 146.522, 1312.475 143.132, 1310 141.377 C 1305.705 138.331, 1288.283 128, 1287.441 128 C 1287.220 128, 1284.443 126.320, 1281.269 124.266 C 1278.096 122.212, 1274.600 120.033, 1273.500 119.423 C 1272.400 118.813, 1269.700 117.259, 1267.500 115.970 C 1257.773 110.270, 1204.262 83.861, 1193.500 79.449 C 1187.894 77.151, 1183.472 75.203, 1176.313 71.875 C 1172.910 70.294, 1169.732 69, 1169.251 69 C 1168.769 69, 1166.513 68.100, 1164.236 67 C 1161.959 65.900, 1159.421 65, 1158.595 65 C 1157.770 65, 1156.060 64.590, 1154.797 64.088 C 1153.534 63.586, 1149.800 62.185, 1146.500 60.974 C 1143.200 59.763, 1139.150 58.190, 1137.500 57.478 C 1132.511 55.325, 1115.798 49.379, 1111 48.051 C 1108.525 47.366, 1105.779 46.437, 1104.898 45.986 C 1104.016 45.536, 1100.191 44.411, 1096.398 43.487 C 1092.604 42.562, 1086.800 40.981, 1083.500 39.973 C 1080.200 38.965, 1075.475 37.598, 1073 36.936 C 1070.525 36.274, 1065.995 34.892, 1062.933 33.866 C 1059.872 32.840, 1055.834 32, 1053.962 32 C 1052.089 32, 1047.619 31.137, 1044.028 30.082 C 1040.438 29.028, 1034.800 27.617, 1031.500 26.948 C 1028.200 26.278, 1023.475 25.027, 1021 24.166 C 1018.525 23.306, 1012 22.286, 1006.500 21.899 C 1001 21.512, 994.362 20.702, 991.750 20.098 C 989.138 19.494, 984.862 18.506, 982.250 17.902 C 979.638 17.298, 972.100 16.434, 965.500 15.981 C 958.900 15.529, 951.250 14.651, 948.500 14.030 C 938.252 11.716, 928.647 10.967, 895.500 9.898 C 876.800 9.295, 856.538 8.595, 850.473 8.344 C 844.409 8.092, 839.147 8.186, 838.781 8.552 M 1175.902 524.892 C 1159.105 531.464, 1136.088 555.789, 1124.213 579.519 C 1109.279 609.360, 1106.798 641.727, 1116.509 680.035 C 1127.444 723.175, 1154.557 770.909, 1183.255 797.547 C 1196.543 809.881, 1211.365 819.146, 1228.061 825.555 C 1233.253 827.547, 1237.852 829.512, 1238.283 829.922 C 1238.713 830.331, 1234.943 834.678, 1229.904 839.583 C 1196.857 871.746, 1175.119 911.723, 1167.416 954.500 C 1164.937 968.265, 1164.436 997.779, 1166.423 1013 C 1171.071 1048.605, 1183.162 1075.789, 1203.933 1097.336 C 1224.916 1119.103, 1250.857 1129.181, 1277.663 1125.981 C 1289.920 1124.517, 1298.197 1121.982, 1309.202 1116.323 C 1346.881 1096.944, 1372.312 1053.705, 1380.937 994.356 C 1384.414 970.434, 1385.288 953.508, 1384.672 922 C 1384.055 890.407, 1382.771 875.645, 1376.018 822.500 C 1369.488 771.108, 1368.735 762.745, 1368.685 741 C 1368.599 703.251, 1373.255 681.188, 1385.831 659.755 C 1395.393 643.460, 1409.632 631.338, 1425.882 625.659 C 1442.727 619.773, 1465.106 621.041, 1482.346 628.858 C 1501.240 637.425, 1516.212 652.880, 1522.561 670.371 C 1528.868 687.747, 1527.579 706.611, 1518.472 730.222 C 1513.807 742.315, 1507.510 753.926, 1492.017 779 C 1471.048 812.937, 1462.981 828.645, 1455.528 850.057 C 1447.145 874.140, 1443.868 892.953, 1443.864 917 C 1443.861 935.863, 1445.065 947.665, 1448.646 963.883 C 1459.862 1014.671, 1493.610 1060.203, 1528.726 1071.926 C 1549.310 1078.798, 1566.957 1075.806, 1582.714 1062.771 C 1587.590 1058.737, 1596.443 1048.110, 1595.616 1047.283 C 1595.412 1047.079, 1591.702 1049.454, 1587.372 1052.561 C 1577.397 1059.721, 1573.587 1061.649, 1565.781 1063.489 C 1552.252 1066.679, 1537.941 1064.827, 1526.070 1058.349 C 1493.453 1040.550, 1467.894 997.550, 1460.479 948 C 1457.459 927.820, 1458.771 897.348, 1463.579 876 C 1465.688 866.633, 1471.574 849.083, 1476.131 838.572 C 1480.388 828.754, 1490.786 809.485, 1497.473 799.025 C 1535.133 740.114, 1546.434 708.352, 1540.595 677.834 C 1537.213 660.155, 1530.899 648.646, 1517.099 635 C 1497.037 615.163, 1473.389 606.081, 1445 607.310 C 1430.348 607.944, 1423.759 609.549, 1411.500 615.473 C 1381.245 630.091, 1362.765 657.818, 1353.826 702 C 1351.704 712.490, 1351.505 716.003, 1351.553 742 C 1351.607 771.067, 1352.288 779.322, 1358.436 825.500 C 1361.128 845.712, 1364.937 880.348, 1366.026 894.500 C 1367.614 915.139, 1367.384 957.878, 1365.596 974.500 C 1359.466 1031.501, 1342.801 1069.218, 1313.865 1091.584 C 1293.134 1107.608, 1265.145 1111.557, 1242.691 1101.627 C 1207.523 1086.074, 1184.983 1042.277, 1184.728 989 C 1184.587 959.457, 1189.554 937.457, 1202.452 910.500 C 1218.886 876.151, 1250.769 840.561, 1272.239 832.600 C 1281.118 829.308, 1283.800 821.646, 1278.077 815.923 C 1274.804 812.650, 1271.060 812.189, 1263.711 814.155 C 1259.764 815.210, 1258.368 814.987, 1247.447 811.558 C 1232.315 806.805, 1222.987 802.506, 1212.117 795.274 C 1177.193 772.039, 1143.829 717.035, 1133.562 665.767 C 1127.403 635.017, 1129.805 612.964, 1141.976 588.500 C 1148.631 575.123, 1157.474 563.214, 1166.563 555.389 C 1173.933 549.045, 1177.104 547.403, 1186.753 544.935 C 1195.047 542.814, 1198.548 540.336, 1199.523 535.894 C 1200.305 532.333, 1196.816 525.693, 1193.327 524.103 C 1189.724 522.462, 1181.119 522.851, 1175.902 524.892 M 418.315 573.939 C 375.395 580.781, 341.655 616.883, 325.526 673.225 C 317.212 702.269, 314.513 729.847, 315.287 777.858 C 315.867 813.823, 316.264 818.553, 323.489 875.500 C 330.307 929.244, 331.313 942.058, 330.667 967 C 329.918 995.908, 327.836 1008.587, 321.054 1025.524 C 312.307 1047.369, 295.821 1065.337, 277.809 1072.656 C 252.876 1082.787, 222.609 1078.006, 200.415 1060.431 C 179.590 1043.940, 170.287 1021.255, 173.938 995.875 C 176.790 976.057, 185.406 956.787, 207.304 921.247 C 230.220 884.055, 237.543 869.560, 245.571 845.500 C 252.514 824.690, 255.034 810.631, 255.699 788.993 C 257.293 737.128, 242.747 693.187, 212.138 657.406 C 199.643 642.799, 183.739 631.733, 168.500 627.043 C 147.299 620.517, 128.756 625.058, 113.500 640.511 C 109.650 644.410, 105.657 649.091, 104.628 650.912 C 102.838 654.076, 103.081 653.973, 110.128 648.575 C 120.373 640.727, 128.010 637.181, 138.775 635.272 C 147.140 633.790, 148.532 633.789, 156.042 635.269 C 196.490 643.238, 232.301 695.180, 239.951 756.974 C 241.284 767.739, 241.286 788.850, 239.956 800.500 C 235.963 835.476, 224.602 864.556, 198.348 907 C 172.202 949.268, 163.215 968.360, 159.539 989.435 C 155.682 1011.552, 158.867 1031.235, 169.141 1048.779 C 174.219 1057.450, 190.932 1073.617, 200.228 1078.850 C 234.992 1098.420, 271.904 1097.559, 301.500 1076.490 C 308.399 1071.579, 320.182 1059.627, 324.762 1052.897 C 336.100 1036.233, 345.030 1009.216, 347.933 982.789 C 350.422 960.140, 349.109 937.698, 341.891 879.500 C 335.138 825.047, 334.249 816.150, 332.835 788.820 C 329.915 732.410, 336.961 683.834, 352.911 650.407 C 367.189 620.485, 388.466 600.965, 414 594.361 C 422.514 592.159, 437.503 592.162, 446 594.367 C 481.819 603.662, 508.258 641.215, 514.053 691.029 C 515.768 705.774, 514.740 733.512, 511.997 746.500 C 505.783 775.923, 490.535 806.979, 470.523 830.973 C 458.097 845.871, 434.936 866, 430.221 866 C 427.886 866, 421.092 869.960, 420.033 871.938 C 418.202 875.360, 418.824 880.683, 421.405 883.684 C 423.451 886.063, 424.533 886.467, 428.655 886.393 C 431.320 886.346, 435.374 885.958, 437.663 885.533 C 445.923 883.999, 472.469 894.182, 488.617 905.079 C 516.848 924.129, 544.815 965.284, 559.603 1009.539 C 567.124 1032.045, 568.396 1039.605, 568.433 1062 C 568.472 1085.590, 567.079 1092.072, 558.007 1110.500 C 550.572 1125.603, 543.324 1135.355, 532.473 1144.853 C 526.090 1150.439, 522.180 1152.396, 512.422 1154.887 C 500.767 1157.863, 497.753 1162.220, 501.669 1170.432 C 505.840 1179.178, 518.902 1179.034, 532.743 1170.088 C 540.508 1165.069, 552.656 1153.590, 560.184 1144.156 C 572.298 1128.977, 581.955 1109.189, 586.231 1090.783 C 589.163 1078.159, 589.363 1049.432, 586.622 1034.500 C 580.162 999.315, 562.137 958.882, 539.090 927.882 C 519.446 901.458, 499.027 885.139, 472.036 874.291 C 466.253 871.966, 461.392 869.676, 461.233 869.200 C 461.075 868.724, 464.487 865.137, 468.815 861.228 C 497.342 835.470, 521.643 793.096, 530.375 753.883 C 536.653 725.689, 536.371 694.220, 529.591 666.500 C 516.058 611.172, 479.087 575.009, 434.500 573.488 C 428.450 573.282, 421.167 573.485, 418.315 573.939 M 973.124 604.578 C 930.262 616.106, 896.821 682.523, 884.548 780.500 C 881.930 801.398, 880.919 820.670, 880.929 849.501 C 880.943 894.677, 883.888 924.866, 892.031 963.323 C 902.845 1014.397, 920.928 1054.122, 943.547 1076.500 C 952.229 1085.088, 959.132 1089.709, 968.568 1093.248 C 973.394 1095.058, 976.551 1095.470, 985.500 1095.459 C 995.081 1095.447, 997.310 1095.107, 1002.779 1092.827 C 1030.279 1081.361, 1051.207 1052.824, 1067.435 1004.660 C 1084.413 954.276, 1094.381 873.274, 1085.340 859.166 C 1082.348 854.497, 1080.249 854.307, 1038.662 854.924 L 999.824 855.500 997.412 858.306 C 993.962 862.319, 994.162 867.316, 997.923 871.077 L 1000.846 874 1019.673 874.162 C 1030.028 874.252, 1045.528 874.198, 1054.117 874.042 C 1063.714 873.869, 1069.971 874.143, 1070.349 874.755 C 1070.919 875.679, 1068.345 903.069, 1065.954 921.500 C 1056.947 990.953, 1033.972 1048.274, 1007.234 1068.002 C 999.001 1074.077, 993.027 1076.189, 984.274 1076.122 C 974.797 1076.050, 966.972 1072.028, 956.981 1062.093 C 928.935 1034.206, 909.166 974.495, 901.826 895.500 C 900.150 877.464, 900.152 821.909, 901.829 803.500 C 906.836 748.531, 917.690 704.108, 934.448 669.995 C 944.768 648.987, 958.296 632.693, 970.559 626.500 C 975.849 623.829, 977.487 623.500, 985.500 623.500 C 993.825 623.500, 994.966 623.753, 1000.720 626.873 C 1011.974 632.977, 1023.678 646.415, 1033.492 664.500 C 1039.200 675.019, 1051.613 704.326, 1056.935 719.846 C 1062.677 736.592, 1070.250 771.990, 1075.044 804.490 C 1076.228 812.516, 1078.167 817.157, 1079.461 815.063 C 1080.790 812.912, 1082.181 794.312, 1081.634 786 C 1079.452 752.858, 1070.863 705.209, 1062.816 681.607 C 1059.492 671.857, 1049.295 651.580, 1042.720 641.647 C 1039.303 636.484, 1032.467 628.306, 1027.026 622.872 C 1018.982 614.838, 1015.989 612.577, 1008.943 609.212 C 995.797 602.934, 984.614 601.487, 973.124 604.578 M 700.932 605.439 C 682.141 610.625, 662.831 629.495, 648.170 657 C 630.782 689.621, 617.396 740.281, 612.421 792.299 C 610.519 812.189, 610.895 832.448, 613.272 838.119 C 616.233 845.184, 615.046 845.002, 657.973 844.985 C 699.288 844.969, 699.491 844.946, 703.335 839.769 C 705.023 837.495, 705.206 836.424, 704.431 833.365 C 703.892 831.237, 702.312 828.810, 700.676 827.596 C 697.950 825.573, 696.667 825.494, 663.702 825.327 C 641.229 825.213, 629.433 824.800, 629.207 824.120 C 628.770 822.811, 632.590 785.926, 634.604 772 C 643.632 709.571, 662.811 659.886, 686.819 636.736 C 705.526 618.698, 724.152 618.871, 742.440 637.251 C 770.623 665.574, 790.555 725.156, 797.609 802.169 C 799.541 823.254, 799.816 872.478, 798.115 892.500 C 792.611 957.269, 778.411 1010.200, 757.472 1044 C 749.887 1056.243, 736.865 1069.545, 728.500 1073.595 C 723.406 1076.062, 721.289 1076.500, 714.479 1076.500 C 707.439 1076.500, 705.645 1076.100, 699.809 1073.227 C 688.115 1067.470, 676.021 1053.559, 665.510 1033.774 C 656.075 1016.016, 641.928 979.887, 637.601 962.500 C 633.191 944.778, 627.226 913.589, 625.045 896.850 C 624.063 889.313, 622.372 884, 620.956 884 C 618.346 884, 617.446 909.962, 619.372 929.688 C 622.221 958.868, 631.936 1005.910, 638.568 1022.642 C 652.882 1058.750, 676.777 1087.241, 698.294 1093.854 C 713.107 1098.407, 723.336 1097.510, 737.874 1090.384 C 761.962 1078.578, 782.695 1047.655, 797.804 1001 C 817.813 939.210, 824.210 856.985, 814.967 780.375 C 806.407 709.420, 784.760 651.352, 756.487 623.500 C 742.466 609.688, 730.156 604.005, 714.500 604.115 C 709.550 604.150, 703.444 604.746, 700.932 605.439" stroke="none" fill="#8494a4" fill-rule="evenodd"/></svg>